<svg xmlns="http://www.w3.org/2000/svg" xmlns:xlink="http://www.w3.org/1999/xlink" width="32px" height="32px" viewBox="-3 -3 38 38" version="1.1"><g id="deeditor_bgCarrier" stroke-width="0">
  <rect id="dee_c_e" x="-3" y="-3" width="38" height="38" rx="38.4" fill="#000000" strokewidth="0"/>
</g>
<g id="surface1">
<path style=" stroke:none;fill-rule:nonzero;fill:#ffffff;fill-opacity:1;" d="M 4.679688 4.679688 C -1.558594 10.921875 -1.558594 21.078125 4.683594 27.320312 C 10.921875 33.558594 21.078125 33.558594 27.320312 27.316406 C 33.558594 21.078125 33.558594 10.921875 27.320312 4.683594 C 21.078125 -1.558594 10.921875 -1.558594 4.679688 4.679688 Z M 25.574219 25.574219 C 20.296875 30.851562 11.707031 30.851562 6.425781 25.574219 C 1.148438 20.292969 1.148438 11.703125 6.425781 6.425781 C 11.703125 1.148438 20.292969 1.148438 25.574219 6.425781 C 30.851562 11.703125 30.851562 20.292969 25.574219 25.574219 Z M 12.621094 14.253906 C 11.890625 14.984375 10.703125 14.984375 9.972656 14.253906 C 9.242188 13.523438 9.242188 12.339844 9.972656 11.609375 C 10.703125 10.878906 11.890625 10.878906 12.621094 11.609375 C 13.351562 12.339844 13.351562 13.523438 12.621094 14.253906 Z M 22.390625 11.636719 C 23.121094 12.367188 23.121094 13.550781 22.390625 14.28125 C 21.660156 15.011719 20.472656 15.011719 19.742188 14.28125 C 19.015625 13.550781 19.015625 12.367188 19.746094 11.636719 C 20.472656 10.90625 21.660156 10.90625 22.390625 11.636719 Z M 18.972656 21.304688 L 18.164062 22.117188 L 18.972656 22.921875 C 19.261719 23.210938 19.421875 23.597656 19.421875 24.003906 C 19.421875 24.414062 19.261719 24.796875 18.972656 25.085938 C 18.394531 25.667969 17.386719 25.667969 16.808594 25.085938 L 16 24.28125 L 15.191406 25.085938 C 14.902344 25.378906 14.519531 25.535156 14.109375 25.535156 C 13.699219 25.535156 13.316406 25.375 13.027344 25.085938 C 12.429688 24.492188 12.429688 23.519531 13.027344 22.925781 L 13.835938 22.117188 L 13.027344 21.308594 C 12.460938 20.742188 12.429688 19.824219 12.960938 19.21875 C 12.972656 19.203125 12.996094 19.175781 13.023438 19.148438 C 13.609375 18.5625 14.613281 18.5625 15.191406 19.140625 L 16 19.949219 L 16.808594 19.140625 C 17.359375 18.589844 18.308594 18.5625 18.894531 19.074219 C 18.914062 19.089844 18.945312 19.113281 18.972656 19.144531 C 19.261719 19.433594 19.421875 19.816406 19.421875 20.222656 C 19.421875 20.632812 19.261719 21.015625 18.972656 21.304688 Z M 18.972656 21.304688 "/>
</g>
</svg>